<svg width="360" height="640" viewBox="0 0 360 640" fill="none" xmlns="http://www.w3.org/2000/svg">
<rect width="360" height="640" fill="white"/>
<path d="M224.774 168.66C224.774 168.66 209.906 156.516 190.566 161.901C171.227 167.286 163.13 183.933 152.039 195.4C146.23 201.397 137.65 203.606 130.749 208.223C108.685 222.985 111.957 256.175 128.967 268.695C143.696 279.533 162.099 280.667 186.053 272.674C210.006 264.68 227.142 259.876 241.995 236.978C256.847 214.081 243.09 185.142 224.774 168.66Z" fill="#FF991C"/>
<path opacity="0.7" d="M224.774 168.66C224.774 168.66 209.906 156.516 190.566 161.901C171.227 167.286 163.13 183.933 152.039 195.4C146.23 201.397 137.65 203.606 130.749 208.223C108.685 222.985 111.957 256.175 128.967 268.695C143.696 279.533 162.099 280.667 186.053 272.674C210.006 264.68 227.142 259.876 241.995 236.978C256.847 214.081 243.09 185.142 224.774 168.66Z" fill="white" fill-opacity="0.61"/>
<path d="M226.98 292.716H132.372L141.833 279.108H217.519L226.98 292.716Z" fill="url(#paint0_linear)" stroke="#314566" stroke-linecap="round" stroke-linejoin="round"/>
<path d="M172.117 239.256C172.117 239.256 167.364 239.687 165.637 236.664C163.91 233.641 166.933 229.967 163.693 228.671C160.453 227.375 156.565 231.697 150.085 228.023C143.605 224.349 147.059 219.599 148.789 215.928C150.519 212.257 151.381 210.527 147.276 208.152C143.171 205.777 138.635 198.863 141.444 192.169C144.253 185.475 151.381 188.495 155.052 185.041C158.723 181.587 155.483 177.479 155.269 171.864C155.055 166.249 162.611 161.927 169.956 163.009C177.301 164.091 178.811 171.864 178.811 176.831C178.811 181.798 186.587 183.097 190.261 177.479C193.935 171.861 196.955 170.568 202.356 172.943C207.757 175.318 203.221 183.311 205.813 184.607C208.405 185.903 210.563 179.64 218.339 183.311C226.115 186.982 221.796 196.702 217.908 199.08C212.251 202.544 218.922 209.26 219.995 213.372C221.566 219.382 216.729 224.19 210.78 223.921C201.277 223.487 198.899 221.977 196.955 224.783C195.011 227.589 201.06 228.24 200.195 232.776C199.33 237.312 197.603 239.039 193.715 239.039C189.827 239.039 187.452 235.585 183.347 237.312C179.242 239.039 174.061 240.335 172.117 239.256Z" fill="#263238" stroke="#263238" stroke-width="0.6" stroke-linecap="round" stroke-linejoin="round"/>
<path d="M164.61 270.198C163.913 272.783 163.667 275.468 163.881 278.136C164.286 282.267 166.392 284.454 175.545 285.831C184.698 287.208 191.016 286.074 196.119 283.644C201.222 281.214 200.065 272.495 198.74 270.496C197.415 268.497 192.312 268.092 184.05 268.821C175.788 269.55 170.685 268.254 167.688 268.74C164.691 269.226 164.61 270.198 164.61 270.198Z" fill="url(#paint1_linear)" stroke="#263238" stroke-width="0.6" stroke-linecap="round" stroke-linejoin="round"/>
<path opacity="0.3" d="M193.77 271.494C193.77 271.494 189.396 272.628 186.318 273.438C183.24 274.248 182.916 274.572 185.67 274.896C188.424 275.22 193.608 274.896 193.608 274.896C193.608 274.896 186.318 278.298 182.43 279.108C178.542 279.918 171.414 277.326 170.604 276.678C169.794 276.03 174.006 276.03 175.14 275.544C176.274 275.058 175.626 274.41 171.576 273.762C167.526 273.114 168.336 276.84 171.9 279.432C175.464 282.024 177.57 282.834 182.187 282.024C186.804 281.214 193.122 279.27 195.228 275.382C197.334 271.494 193.77 271.494 193.77 271.494Z" fill="black" fill-opacity="0.15"/>
<path d="M162.546 245.558L162.008 256.379C162.008 256.379 161.036 258.894 162.786 260.507C164.535 262.121 166.791 261.644 167.97 259.551C169.149 257.458 168.987 252.615 169.285 250.7C169.583 248.785 167.254 246.812 165.339 246.096C163.424 245.38 162.546 245.558 162.546 245.558Z" fill="#77533E" stroke="#614230" stroke-width="0.6" stroke-linecap="round" stroke-linejoin="round"/>
<path d="M200.435 245.558L200.973 256.379C200.973 256.379 201.928 258.894 200.195 260.507C198.462 262.121 196.187 261.644 194.991 259.551C193.796 257.458 193.974 252.615 193.676 250.7C193.378 248.785 195.711 246.812 197.622 246.096C199.534 245.38 200.435 245.558 200.435 245.558Z" fill="#77533E" stroke="#614230" stroke-width="0.6" stroke-linecap="round" stroke-linejoin="round"/>
<path d="M177.188 229.432C177.188 229.432 178.014 234.27 176.922 236.178C175.83 238.086 171.728 237.636 169.48 237.636C167.231 237.636 163.884 239.476 162.792 241.32C161.969 242.832 161.262 244.404 160.68 246.024L168.184 250.048C168.184 250.048 167.364 251.62 168.184 253.936C169.003 256.253 170.228 257.144 169.888 258.304C169.548 259.464 165.112 267.716 164.704 269.012C164.498 269.612 164.338 270.228 164.228 270.852C164.228 270.852 173.708 272.696 181.96 272.424C190.212 272.152 198.74 270.512 198.74 270.512C198.74 270.512 196.216 266.08 194.852 263.556C193.488 261.032 192.26 258.44 192.532 257.552C192.804 256.665 194.376 254.28 194.308 250.116C194.308 250.116 200.376 248.548 202.628 246.024C202.628 246.024 199.968 239.408 197.24 238.316C194.512 237.225 191.376 238.316 189.14 237.704C186.904 237.092 183.58 236.994 183.24 236.178C182.9 235.362 184.704 230.54 184.841 229.656L177.188 229.432Z" fill="url(#paint2_linear)"/>
<path opacity="0.3" d="M170.28 255.78C170.28 255.78 168.012 253.35 170.604 253.026C173.196 252.702 176.922 255.294 180.972 256.266C185.022 257.238 189.882 252.864 191.988 253.512C194.094 254.16 192.798 257.4 190.53 258.858C188.262 260.316 181.944 260.154 178.38 259.992C174.816 259.83 173.034 258.858 170.28 255.78Z" fill="black" fill-opacity="0.12"/>
<path d="M173.196 257.283C173.196 257.283 174.43 258.272 177.732 258.272C181.034 258.272 183.564 256.791 185.877 257.202" stroke="#FFC155" stroke-width="0.6" stroke-linecap="round" stroke-linejoin="round"/>
<path d="M171.796 257.53C171.796 257.53 173.193 258.683 176.073 258.764" stroke="#FFC155" stroke-width="0.6" stroke-linecap="round" stroke-linejoin="round"/>
<path d="M168.184 250.032C168.184 250.032 168.42 248.811 169.985 247.657" stroke="#FFC155" stroke-width="0.6" stroke-linecap="round" stroke-linejoin="round"/>
<path d="M194.308 250.1C194.308 250.1 193.76 247.742 192.28 247.246" stroke="#FFC155" stroke-width="0.6" stroke-linecap="round" stroke-linejoin="round"/>
<path d="M181.552 246.008C186.888 245.798 188.563 240.662 189.088 237.678C186.862 237.063 185.712 235.977 185.372 235.164C185.032 234.351 184.688 230.524 184.824 229.64L177.188 229.432C177.188 229.432 177.392 233.936 176.3 235.844C175.743 236.816 174.557 237.263 173.232 237.464C173.737 239.606 175.788 246.238 181.552 246.008Z" fill="#77533E" stroke="#614230" stroke-width="0.6"/>
<path opacity="0.3" d="M184.957 232.795C184.821 231.749 184.777 230.693 184.824 229.64L177.188 229.432C177.228 230.593 177.188 231.754 177.068 232.909C178.409 233.787 181.127 234.837 184.957 232.795Z" fill="black"/>
<path d="M173.948 220.14C173.948 220.14 172.976 218.556 172.02 219.521C171.064 220.487 172.02 222.411 172.639 223.305C173.258 224.2 174.427 224.887 174.703 224.543C174.978 224.2 173.948 220.14 173.948 220.14Z" fill="#77533E" stroke="#614230" stroke-width="0.6" stroke-linecap="round" stroke-linejoin="round"/>
<path d="M188.878 219.997C188.878 219.997 190.255 218.209 191.013 219.929C191.771 221.65 189.717 224.265 188.745 224.747C187.773 225.23 188.262 223.646 188.33 223.095C188.398 222.544 188.878 219.997 188.878 219.997Z" fill="#77533E" stroke="#614230" stroke-width="0.6" stroke-linecap="round" stroke-linejoin="round"/>
<path d="M173.196 214.081C173.196 214.081 173.679 220.62 174.022 223.921C174.366 227.223 175.597 230.184 179.381 231.156C183.165 232.128 186.185 230.813 187.296 228.609C188.408 226.406 189.017 222.21 189.017 218.769V213.261C189.017 213.261 179.245 210.504 173.196 214.081Z" fill="#77533E" stroke="#614230" stroke-width="0.6" stroke-linecap="round" stroke-linejoin="round"/>
<path d="M173.604 219.372C174.076 218.576 174.445 217.724 174.703 216.835C175.121 215.672 175.251 214.425 175.082 213.2C174.428 213.436 173.796 213.731 173.196 214.081C173.196 214.081 173.377 216.644 173.604 219.372Z" fill="#263238" stroke="#263238" stroke-width="0.6" stroke-linecap="round" stroke-linejoin="round"/>
<path d="M189.014 218.825C189.014 218.802 189.014 218.782 189.014 218.76V213.252C189.014 213.252 188.34 213.064 187.241 212.85C187.313 213.919 187.633 217.143 189.014 218.825Z" fill="#263238" stroke="#263238" stroke-width="0.6" stroke-linecap="round" stroke-linejoin="round"/>
<path d="M182.187 282.024C182.187 282.024 179.028 282.024 173.358 276.435C167.688 270.846 164.124 266.148 159.75 264.204C155.376 262.26 151.164 266.553 151.407 271.17C151.65 275.787 155.052 282.267 165.177 285.993C175.302 289.719 183.969 288.18 184.86 288.18C185.751 288.18 190.125 290.367 192.717 290.61C194.144 290.763 195.583 290.763 197.01 290.61C197.01 290.61 197.739 290.691 198.144 290.691C198.549 290.691 199.035 290.205 199.035 290.205C199.035 290.205 199.855 290.419 200.179 289.852C200.503 289.285 200.25 289.071 200.25 289.071C200.25 289.071 201.637 289.191 202.123 288.3C202.609 287.409 201.915 287.445 201.915 287.445C201.915 287.445 202.865 287.26 202.842 286.495C202.86 286.21 202.804 285.926 202.68 285.669C202.68 285.669 203.247 284.778 203.004 284.049C202.761 283.32 201.87 283.077 200.979 283.482C200.088 283.887 195.795 283.725 192.312 283.482C188.829 283.239 182.187 282.024 182.187 282.024Z" fill="#77533E" stroke="#614230" stroke-width="0.6" stroke-linecap="round" stroke-linejoin="round"/>
<path d="M180.778 281.7C179.333 281.178 176.812 279.85 173.358 276.445C167.688 270.846 164.124 266.148 159.75 264.204C155.376 262.26 151.164 266.553 151.407 271.17C151.65 275.787 155.052 282.267 165.177 285.993C168.953 287.372 172.912 288.19 176.925 288.42C180.606 286.884 180.949 283.644 180.778 281.7Z" fill="url(#paint3_linear)"/>
<path opacity="0.3" d="M179.401 286.67C177.803 286.064 175.937 285.416 173.844 284.778C166.392 282.51 160.884 279.756 157.158 275.544C153.432 271.332 154.728 265.986 154.728 265.986L153.869 265.208C153.045 265.959 152.397 266.883 151.971 267.914C151.545 268.944 151.353 270.056 151.407 271.17C151.65 275.787 155.052 282.267 165.177 285.993C168.953 287.372 172.911 288.19 176.925 288.42C177.878 288.042 178.726 287.442 179.401 286.67Z" fill="black"/>
<path d="M180.778 281.7C179.333 281.178 176.812 279.85 173.358 276.445C167.688 270.846 164.124 266.148 159.75 264.204C155.376 262.26 151.164 266.553 151.407 271.17C151.65 275.787 155.052 282.267 165.177 285.993C168.953 287.372 172.912 288.19 176.925 288.42C180.606 286.884 180.949 283.644 180.778 281.7Z" stroke="#2D6B80" stroke-width="0.6" stroke-linecap="round" stroke-linejoin="round"/>
<path d="M202.68 285.669C202.431 285.557 202.161 285.503 201.888 285.509C201.616 285.516 201.348 285.584 201.105 285.708" fill="white"/>
<path d="M202.68 285.669C202.431 285.557 202.161 285.503 201.888 285.509C201.616 285.516 201.348 285.584 201.105 285.708" stroke="#614230" stroke-width="0.6" stroke-linecap="round" stroke-linejoin="round"/>
<path d="M201.915 287.445C201.497 287.293 201.038 287.293 200.619 287.445H201.915Z" fill="white"/>
<path d="M201.915 287.445C201.497 287.293 201.038 287.293 200.619 287.445" stroke="#614230" stroke-width="0.6" stroke-linecap="round" stroke-linejoin="round"/>
<path d="M200.25 289.071C199.951 288.846 199.58 288.737 199.207 288.763L200.25 289.071Z" fill="white"/>
<path d="M200.25 289.071C199.951 288.846 199.58 288.737 199.207 288.763" stroke="#614230" stroke-width="0.6" stroke-linecap="round" stroke-linejoin="round"/>
<path d="M198.951 290.124C198.951 290.124 198.604 289.499 198.095 289.499L198.951 290.124Z" fill="white"/>
<path d="M198.951 290.124C198.951 290.124 198.604 289.499 198.095 289.499" stroke="#614230" stroke-width="0.6" stroke-linecap="round" stroke-linejoin="round"/>
<path d="M178.594 282.024C178.594 282.024 181.753 282.024 187.423 276.435C193.093 270.846 196.657 266.148 201.031 264.204C205.405 262.26 209.617 266.553 209.374 271.17C209.131 275.787 205.729 282.267 195.604 285.993C185.479 289.719 176.812 288.18 175.921 288.18C175.03 288.18 170.656 290.367 168.064 290.61C166.637 290.763 165.198 290.763 163.771 290.61C163.771 290.61 163.042 290.691 162.637 290.691C162.232 290.691 161.746 290.205 161.746 290.205C161.746 290.205 160.926 290.419 160.602 289.852C160.278 289.285 160.531 289.071 160.531 289.071C160.531 289.071 159.141 289.191 158.655 288.3C158.169 287.409 158.862 287.445 158.862 287.445C158.862 287.445 157.913 287.26 157.936 286.495C157.917 286.21 157.974 285.925 158.101 285.669C158.101 285.669 157.534 284.778 157.777 284.049C158.02 283.32 158.911 283.077 159.802 283.482C160.693 283.887 164.986 283.725 168.469 283.482C171.952 283.239 178.594 282.024 178.594 282.024Z" fill="#77533E" stroke="#614230" stroke-width="0.6" stroke-linecap="round" stroke-linejoin="round"/>
<path d="M180 281.7C181.442 281.178 183.963 279.85 187.42 276.445C193.09 270.856 196.654 266.158 201.028 264.214C205.402 262.27 209.614 266.563 209.371 271.18C209.128 275.797 205.726 282.277 195.601 286.003C191.823 287.382 187.864 288.2 183.849 288.43C180.172 286.884 179.832 283.644 180 281.7Z" fill="url(#paint4_linear)"/>
<path opacity="0.3" d="M209.374 271.17C209.542 267.953 207.546 264.897 204.838 263.993L203.652 264.852C203.652 264.852 207.702 267.282 206.73 271.98C205.758 276.678 197.82 281.538 191.502 284.13C188.356 285.363 185.128 286.373 181.84 287.153C182.431 287.691 183.112 288.12 183.852 288.42C187.867 288.19 191.827 287.373 195.604 285.993C205.729 282.267 209.131 275.787 209.374 271.17Z" fill="black"/>
<path d="M180 281.7C181.442 281.178 183.963 279.85 187.42 276.445C193.09 270.856 196.654 266.158 201.028 264.214C205.402 262.27 209.614 266.563 209.371 271.18C209.128 275.797 205.726 282.277 195.601 286.003C191.823 287.382 187.864 288.2 183.849 288.43C180.172 286.884 179.832 283.644 180 281.7Z" fill="url(#paint5_linear)" stroke="#2D6B80" stroke-width="0.6" stroke-linecap="round" stroke-linejoin="round"/>
<path d="M158.101 285.669C158.349 285.557 158.62 285.503 158.893 285.509C159.165 285.516 159.433 285.584 159.675 285.708" fill="white"/>
<path d="M158.101 285.669C158.349 285.557 158.62 285.503 158.893 285.509C159.165 285.516 159.433 285.584 159.675 285.708" stroke="#614230" stroke-width="0.6" stroke-linecap="round" stroke-linejoin="round"/>
<path d="M158.862 287.445C159.281 287.293 159.74 287.293 160.158 287.445H158.862Z" fill="white"/>
<path d="M158.862 287.445C159.281 287.293 159.74 287.293 160.158 287.445" stroke="#614230" stroke-width="0.6" stroke-linecap="round" stroke-linejoin="round"/>
<path d="M160.531 289.071C160.83 288.846 161.201 288.737 161.574 288.763L160.531 289.071Z" fill="white"/>
<path d="M160.531 289.071C160.83 288.846 161.201 288.737 161.574 288.763" stroke="#614230" stroke-width="0.6" stroke-linecap="round" stroke-linejoin="round"/>
<path d="M161.83 290.124C161.83 290.124 162.18 289.476 162.685 289.476L161.83 290.124Z" fill="white"/>
<path d="M161.83 290.124C161.83 290.124 162.18 289.476 162.685 289.476" stroke="#614230" stroke-width="0.6" stroke-linecap="round" stroke-linejoin="round"/>
<path d="M163.92 257.099C163.92 257.099 162.724 256.859 160.573 257.935C158.422 259.01 156.445 260.925 155.308 261.583C154.171 262.241 153.396 262.662 152.392 261.644C151.388 260.627 149.223 257.815 147.189 257.876C145.154 257.938 144.438 260.747 144.797 261.343C145.157 261.939 145.695 262.062 146.113 261.583C146.531 261.103 147.069 260.148 147.606 260.507C148.144 260.867 147.846 262.542 147.01 262.84C146.174 263.138 143.9 264.573 144.438 265.413C144.976 266.252 148.028 267.386 150.299 267.564C152.57 267.742 155.382 266.19 157.236 265.889C159.089 265.587 164.114 265.241 166.444 263.319C167.115 262.774 167.629 262.06 167.934 261.25C168.239 260.441 168.324 259.565 168.18 258.712" fill="#77533E"/>
<path d="M163.92 257.099C163.92 257.099 162.724 256.859 160.573 257.935C158.422 259.01 156.445 260.925 155.308 261.583C154.171 262.241 153.396 262.662 152.392 261.644C151.388 260.627 149.223 257.815 147.189 257.876C145.154 257.938 144.438 260.747 144.797 261.343C145.157 261.939 145.695 262.062 146.113 261.583C146.531 261.103 147.069 260.148 147.606 260.507C148.144 260.867 147.846 262.542 147.01 262.84C146.174 263.138 143.9 264.573 144.438 265.413C144.976 266.252 148.028 267.386 150.299 267.564C152.57 267.742 155.382 266.19 157.236 265.889C159.089 265.587 164.114 265.241 166.444 263.319C167.115 262.774 167.629 262.06 167.934 261.25C168.239 260.441 168.324 259.565 168.18 258.712" stroke="#614230" stroke-width="0.6" stroke-linecap="round" stroke-linejoin="round"/>
<path d="M144.723 264.155C144.723 264.155 144.486 261.525 143.709 261.343C142.931 261.162 142.811 262.963 142.931 264.693C143.051 266.423 144.007 266.906 144.603 266.427C145.199 265.947 144.723 264.155 144.723 264.155Z" fill="#77533E" stroke="#614230" stroke-width="0.6" stroke-linecap="round" stroke-linejoin="round"/>
<path d="M146.592 264.897C146.592 264.897 146.819 262.263 146.087 261.949C145.355 261.635 144.921 263.381 144.729 265.108C144.538 266.835 145.4 267.476 146.074 267.114C146.748 266.751 146.592 264.897 146.592 264.897Z" fill="#77533E" stroke="#614230" stroke-width="0.6" stroke-linecap="round" stroke-linejoin="round"/>
<path d="M148.206 265.5C148.206 265.5 148.436 262.869 147.7 262.555C146.965 262.241 146.534 263.987 146.346 265.714C146.158 267.441 147.014 268.082 147.687 267.716C148.361 267.35 148.206 265.5 148.206 265.5Z" fill="#77533E" stroke="#614230" stroke-width="0.6" stroke-linecap="round" stroke-linejoin="round"/>
<path d="M152.437 267.444C151.352 267.945 150.166 268.191 148.971 268.163C148.901 267.667 148.861 267.167 148.851 266.666C148.851 266.018 150.224 263.319 152.259 263.498" fill="#77533E"/>
<path d="M152.437 267.444C151.352 267.945 150.166 268.191 148.971 268.163C148.901 267.667 148.861 267.167 148.851 266.666C148.851 266.018 150.224 263.319 152.259 263.498" stroke="#614230" stroke-width="0.6" stroke-linecap="round" stroke-linejoin="round"/>
<path d="M149.92 266.527C149.92 266.527 150.681 264.466 150.053 263.987C149.424 263.507 148.65 264.784 148.109 266.125C147.568 267.467 148.251 268.251 148.964 268.163C149.677 268.076 149.92 266.527 149.92 266.527Z" fill="#77533E" stroke="#614230" stroke-width="0.6" stroke-linecap="round" stroke-linejoin="round"/>
<path d="M199.058 257.099C199.058 257.099 200.253 256.859 202.408 257.935C204.562 259.01 206.532 260.925 207.67 261.583C208.807 262.241 209.584 262.662 210.602 261.644C211.619 260.627 213.77 257.815 215.802 257.876C217.833 257.938 218.553 260.747 218.196 261.343C217.84 261.939 217.299 262.062 216.881 261.583C216.463 261.103 215.909 260.148 215.384 260.507C214.859 260.867 215.144 262.542 215.983 262.84C216.823 263.138 219.094 264.573 218.553 265.413C218.012 266.252 214.966 267.386 212.695 267.564C210.424 267.742 207.611 266.19 205.755 265.889C203.898 265.587 198.879 265.241 196.547 263.319C195.876 262.774 195.362 262.06 195.057 261.25C194.753 260.441 194.669 259.565 194.813 258.712" fill="#77533E"/>
<path d="M199.058 257.099C199.058 257.099 200.253 256.859 202.408 257.935C204.562 259.01 206.532 260.925 207.67 261.583C208.807 262.241 209.584 262.662 210.602 261.644C211.619 260.627 213.77 257.815 215.802 257.876C217.833 257.938 218.553 260.747 218.196 261.343C217.84 261.939 217.299 262.062 216.881 261.583C216.463 261.103 215.909 260.148 215.384 260.507C214.859 260.867 215.144 262.542 215.983 262.84C216.823 263.138 219.094 264.573 218.553 265.413C218.012 266.252 214.966 267.386 212.695 267.564C210.424 267.742 207.611 266.19 205.755 265.889C203.898 265.587 198.879 265.241 196.547 263.319C195.876 262.774 195.362 262.06 195.057 261.25C194.753 260.441 194.669 259.565 194.813 258.712" stroke="#614230" stroke-width="0.6" stroke-linecap="round" stroke-linejoin="round"/>
<path d="M218.255 264.155C218.255 264.155 218.494 261.525 219.272 261.343C220.05 261.162 220.169 262.963 220.05 264.693C219.93 266.423 218.974 266.906 218.375 266.427C217.775 265.947 218.255 264.155 218.255 264.155Z" fill="#77533E" stroke="#614230" stroke-width="0.6" stroke-linecap="round" stroke-linejoin="round"/>
<path d="M216.388 264.897C216.388 264.897 216.158 262.263 216.891 261.949C217.623 261.635 218.06 263.381 218.248 265.108C218.436 266.835 217.584 267.476 216.907 267.12C216.23 266.764 216.388 264.897 216.388 264.897Z" fill="#77533E" stroke="#614230" stroke-width="0.6" stroke-linecap="round" stroke-linejoin="round"/>
<path d="M214.772 265.5C214.772 265.5 214.545 262.869 215.277 262.555C216.009 262.241 216.447 263.987 216.635 265.714C216.823 267.441 215.964 268.082 215.293 267.716C214.623 267.35 214.772 265.5 214.772 265.5Z" fill="#77533E" stroke="#614230" stroke-width="0.6" stroke-linecap="round" stroke-linejoin="round"/>
<path d="M210.54 267.444C211.63 267.946 212.82 268.192 214.02 268.163C214.089 267.667 214.129 267.167 214.14 266.666C214.14 266.018 212.763 263.319 210.728 263.498" fill="#77533E"/>
<path d="M210.54 267.444C211.63 267.946 212.82 268.192 214.02 268.163C214.089 267.667 214.129 267.167 214.14 266.666C214.14 266.018 212.763 263.319 210.728 263.498" stroke="#614230" stroke-width="0.6" stroke-linecap="round" stroke-linejoin="round"/>
<path d="M213.048 266.527C213.048 266.527 212.287 264.466 212.915 263.987C213.544 263.507 214.315 264.784 214.859 266.125C215.404 267.467 214.717 268.251 214.004 268.163C213.291 268.076 213.048 266.527 213.048 266.527Z" fill="#77533E" stroke="#614230" stroke-width="0.6" stroke-linecap="round" stroke-linejoin="round"/>
<path d="M187.452 210.096C186.691 208.991 185.508 210.067 185.203 210.397C184.879 210.073 183.716 208.991 182.958 210.096C182.132 211.298 185.177 213.803 185.203 213.79C185.229 213.777 188.268 211.298 187.452 210.096Z" stroke="#FF991C" stroke-linecap="round" stroke-linejoin="round"/>
<path d="M179.887 211.087C178.935 209.807 177.654 208.809 176.18 208.201C173.808 207.274 175.354 205.421 176.384 205.933C177.049 206.259 177.738 206.534 178.445 206.756C178.445 206.756 175.765 204.591 175.665 202.738C175.564 200.885 178.445 203.253 178.445 203.253C178.445 203.253 174.942 198.432 176.076 197.59C177.21 196.747 178.237 198.312 178.96 199.65C179.473 200.65 179.92 201.683 180.298 202.741C180.298 202.741 180.094 199.342 181.228 200.373C182.362 201.403 181.639 206.555 181.639 206.555C181.639 206.555 183.185 202.343 183.907 204.611C184.63 206.879 180.198 210.776 179.887 211.087Z" stroke="#FF991C" stroke-linecap="round" stroke-linejoin="round"/>
<path d="M179.887 211.087C179.887 211.087 181.536 206.14 178.137 199.747" stroke="#FF991C" stroke-linecap="round" stroke-linejoin="round"/>
<path d="M174.233 178.244C173.052 178.235 171.89 178.547 170.873 179.148C169.253 180.12 168.864 178.393 169.629 178.014C170.118 177.766 170.588 177.482 171.035 177.165C171.035 177.165 168.56 177.78 167.419 177.012C166.279 176.244 168.965 175.6 168.965 175.6C168.965 175.6 164.542 175.509 164.561 174.472C164.581 173.435 165.951 173.5 167.066 173.688C167.885 173.832 168.695 174.027 169.489 174.275C169.489 174.275 167.39 172.878 168.501 172.655C169.613 172.431 172.337 175.169 172.337 175.169C172.337 175.169 170.533 172.373 172.192 172.956C173.85 173.539 174.187 177.923 174.233 178.244Z" stroke="#FF991C" stroke-linecap="round" stroke-linejoin="round"/>
<path d="M174.233 178.244C174.233 178.244 172.049 175.062 166.758 174.219" stroke="#FF991C" stroke-linecap="round" stroke-linejoin="round"/>
<path d="M194.697 198.714C194.605 198.716 194.514 198.728 194.424 198.75C194.562 198.619 194.665 198.457 194.727 198.278C194.788 198.099 194.806 197.908 194.778 197.72C194.75 197.533 194.678 197.355 194.567 197.202C194.456 197.048 194.31 196.923 194.141 196.838C193.972 196.753 193.785 196.709 193.596 196.711C193.407 196.713 193.22 196.761 193.053 196.849C192.886 196.938 192.743 197.066 192.635 197.222C192.527 197.378 192.459 197.557 192.435 197.745C192.359 197.585 192.248 197.444 192.111 197.333C191.973 197.221 191.812 197.142 191.64 197.101C191.467 197.06 191.288 197.059 191.115 197.096C190.942 197.134 190.779 197.21 190.64 197.319C190.5 197.428 190.386 197.567 190.308 197.725C190.229 197.884 190.186 198.058 190.184 198.236C190.182 198.413 190.219 198.588 190.293 198.749C190.368 198.91 190.478 199.052 190.614 199.164C190.461 199.241 190.327 199.35 190.22 199.483C190.113 199.617 190.037 199.772 189.996 199.938C189.955 200.104 189.95 200.277 189.983 200.445C190.015 200.613 190.083 200.772 190.183 200.911C190.282 201.049 190.411 201.165 190.56 201.25C190.708 201.334 190.873 201.385 191.044 201.4C191.214 201.414 191.386 201.392 191.546 201.334C191.707 201.275 191.853 201.183 191.975 201.063C192.002 201.36 192.14 201.636 192.362 201.835C192.584 202.034 192.873 202.142 193.171 202.136C193.469 202.131 193.754 202.013 193.968 201.806C194.183 201.599 194.311 201.318 194.327 201.021C194.446 201.061 194.571 201.082 194.697 201.086C195.011 201.086 195.313 200.961 195.535 200.738C195.758 200.516 195.882 200.214 195.882 199.9C195.882 199.585 195.758 199.284 195.535 199.061C195.313 198.839 195.011 198.714 194.697 198.714V198.714Z" stroke="#FF991C" stroke-linecap="round" stroke-linejoin="round"/>
<path d="M192.678 200.467C193.131 200.467 193.498 200.1 193.498 199.647C193.498 199.194 193.131 198.827 192.678 198.827C192.225 198.827 191.858 199.194 191.858 199.647C191.858 200.1 192.225 200.467 192.678 200.467Z" stroke="#FF991C" stroke-linecap="round" stroke-linejoin="round"/>
<path d="M170.986 208.042C170.893 208.044 170.801 208.055 170.711 208.077C170.849 207.947 170.953 207.786 171.016 207.606C171.078 207.427 171.096 207.236 171.069 207.048C171.041 206.86 170.969 206.682 170.859 206.528C170.748 206.374 170.601 206.248 170.432 206.163C170.263 206.077 170.075 206.034 169.886 206.036C169.696 206.038 169.51 206.085 169.342 206.175C169.175 206.264 169.031 206.392 168.924 206.548C168.816 206.705 168.748 206.885 168.725 207.073C168.609 206.831 168.414 206.636 168.172 206.52C167.93 206.403 167.656 206.373 167.395 206.432C167.133 206.492 166.9 206.639 166.733 206.849C166.566 207.059 166.476 207.32 166.476 207.588C166.477 207.761 166.515 207.932 166.589 208.088C166.663 208.244 166.77 208.382 166.904 208.492C166.751 208.569 166.617 208.678 166.51 208.811C166.403 208.945 166.327 209.1 166.286 209.266C166.245 209.432 166.24 209.605 166.272 209.773C166.305 209.941 166.373 210.099 166.472 210.238C166.572 210.377 166.701 210.493 166.849 210.578C166.998 210.662 167.163 210.713 167.333 210.728C167.504 210.742 167.675 210.72 167.836 210.662C167.997 210.603 168.143 210.511 168.265 210.391C168.296 210.684 168.436 210.954 168.657 211.149C168.878 211.344 169.164 211.449 169.458 211.444C169.753 211.439 170.035 211.323 170.249 211.121C170.463 210.918 170.593 210.643 170.614 210.349C170.734 210.39 170.859 210.412 170.986 210.414C171.301 210.414 171.602 210.289 171.825 210.066C172.047 209.844 172.172 209.542 172.172 209.228C172.172 208.913 172.047 208.612 171.825 208.389C171.602 208.167 171.301 208.042 170.986 208.042V208.042Z" stroke="#FF991C" stroke-linecap="round" stroke-linejoin="round"/>
<path d="M168.965 209.795C169.417 209.795 169.784 209.428 169.784 208.975C169.784 208.522 169.417 208.155 168.965 208.155C168.512 208.155 168.145 208.522 168.145 208.975C168.145 209.428 168.512 209.795 168.965 209.795Z" stroke="#FF991C" stroke-linecap="round" stroke-linejoin="round"/>
<path d="M170.338 193.306C170.28 193.307 170.223 193.315 170.167 193.329C170.24 193.261 170.298 193.179 170.337 193.087C170.377 192.996 170.397 192.897 170.397 192.798C170.406 192.605 170.338 192.417 170.21 192.273C170.081 192.13 169.901 192.042 169.709 192.03C169.517 192.018 169.327 192.081 169.181 192.207C169.035 192.333 168.945 192.512 168.929 192.704C168.882 192.604 168.812 192.517 168.727 192.447C168.641 192.378 168.541 192.329 168.433 192.304C168.326 192.279 168.215 192.278 168.107 192.301C167.999 192.325 167.898 192.373 167.812 192.44C167.725 192.508 167.654 192.595 167.606 192.694C167.557 192.792 167.531 192.901 167.529 193.011C167.528 193.121 167.552 193.23 167.598 193.33C167.645 193.43 167.713 193.518 167.798 193.588C167.676 193.647 167.574 193.739 167.502 193.854C167.429 193.968 167.391 194.101 167.39 194.236C167.386 194.385 167.426 194.532 167.507 194.657C167.588 194.783 167.704 194.881 167.842 194.939C167.979 194.997 168.131 195.012 168.277 194.982C168.423 194.952 168.556 194.878 168.66 194.771C168.68 194.953 168.768 195.121 168.906 195.242C169.044 195.363 169.222 195.428 169.406 195.424C169.589 195.421 169.764 195.348 169.897 195.222C170.03 195.096 170.111 194.925 170.124 194.742C170.198 194.769 170.276 194.783 170.355 194.784C170.55 194.784 170.738 194.706 170.877 194.567C171.015 194.429 171.093 194.241 171.093 194.045C171.093 193.849 171.015 193.661 170.877 193.523C170.738 193.384 170.55 193.306 170.355 193.306H170.338Z" stroke="#FF991C" stroke-linecap="round" stroke-linejoin="round"/>
<path d="M169.081 194.398C169.364 194.398 169.593 194.169 169.593 193.886C169.593 193.604 169.364 193.374 169.081 193.374C168.798 193.374 168.569 193.604 168.569 193.886C168.569 194.169 168.798 194.398 169.081 194.398Z" stroke="#FF991C" stroke-linecap="round" stroke-linejoin="round"/>
<path d="M163.661 215.928C163.604 215.929 163.547 215.937 163.492 215.951C163.564 215.882 163.621 215.8 163.66 215.708C163.699 215.617 163.719 215.519 163.719 215.419C163.718 215.233 163.647 215.054 163.519 214.918C163.391 214.783 163.217 214.701 163.031 214.689C162.845 214.677 162.661 214.736 162.517 214.854C162.373 214.972 162.279 215.141 162.255 215.325C162.207 215.227 162.137 215.14 162.052 215.071C161.966 215.003 161.866 214.954 161.759 214.93C161.652 214.905 161.541 214.904 161.434 214.928C161.327 214.951 161.227 214.998 161.14 215.066C161.054 215.133 160.983 215.219 160.934 215.317C160.885 215.416 160.859 215.524 160.857 215.633C160.855 215.743 160.878 215.852 160.924 215.951C160.969 216.051 161.036 216.139 161.121 216.21C161.026 216.258 160.943 216.325 160.877 216.408C160.811 216.491 160.763 216.588 160.738 216.691C160.713 216.794 160.71 216.901 160.73 217.005C160.75 217.109 160.792 217.208 160.854 217.294C160.916 217.38 160.995 217.452 161.087 217.505C161.18 217.557 161.282 217.59 161.388 217.599C161.493 217.608 161.6 217.595 161.699 217.559C161.799 217.523 161.89 217.467 161.966 217.392C161.987 217.575 162.074 217.743 162.212 217.864C162.35 217.985 162.528 218.049 162.712 218.046C162.895 218.042 163.07 217.97 163.203 217.844C163.336 217.718 163.417 217.546 163.431 217.363C163.504 217.39 163.582 217.405 163.661 217.405C163.857 217.405 164.045 217.328 164.183 217.189C164.322 217.051 164.399 216.863 164.399 216.667C164.399 216.471 164.322 216.283 164.183 216.144C164.045 216.006 163.857 215.928 163.661 215.928V215.928Z" stroke="#FF991C" stroke-linecap="round" stroke-linejoin="round"/>
<path d="M162.404 217.02C162.686 217.02 162.915 216.791 162.915 216.508C162.915 216.225 162.686 215.996 162.404 215.996C162.121 215.996 161.892 216.225 161.892 216.508C161.892 216.791 162.121 217.02 162.404 217.02Z" stroke="#FF991C" stroke-linecap="round" stroke-linejoin="round"/>
<path d="M178.001 181.03C177.944 181.031 177.888 181.039 177.832 181.053C177.917 180.971 177.981 180.871 178.02 180.76C178.058 180.649 178.069 180.53 178.051 180.414C178.034 180.298 177.989 180.187 177.921 180.092C177.852 179.996 177.762 179.919 177.657 179.866C177.552 179.812 177.436 179.785 177.319 179.786C177.201 179.787 177.085 179.816 176.981 179.87C176.877 179.925 176.788 180.004 176.721 180.1C176.654 180.197 176.61 180.308 176.595 180.424C176.523 180.273 176.401 180.15 176.25 180.078C176.099 180.005 175.928 179.986 175.765 180.023C175.601 180.061 175.456 180.154 175.352 180.285C175.249 180.417 175.193 180.58 175.195 180.748C175.195 180.855 175.219 180.961 175.265 181.058C175.311 181.155 175.378 181.241 175.461 181.309C175.311 181.382 175.191 181.503 175.119 181.653C175.048 181.804 175.029 181.974 175.067 182.136C175.104 182.298 175.196 182.442 175.326 182.546C175.457 182.649 175.618 182.705 175.785 182.705C175.88 182.705 175.975 182.686 176.064 182.65C176.152 182.613 176.232 182.559 176.3 182.491C176.32 182.673 176.407 182.842 176.545 182.963C176.683 183.084 176.861 183.149 177.044 183.146C177.227 183.143 177.403 183.071 177.536 182.945C177.669 182.819 177.751 182.648 177.764 182.465C177.839 182.491 177.916 182.505 177.994 182.507C178.19 182.507 178.378 182.43 178.517 182.291C178.655 182.152 178.733 181.965 178.733 181.769C178.733 181.573 178.655 181.385 178.517 181.246C178.378 181.108 178.19 181.03 177.994 181.03H178.001Z" stroke="#FF991C" stroke-linecap="round" stroke-linejoin="round"/>
<path d="M176.744 182.122C177.027 182.122 177.256 181.893 177.256 181.61C177.256 181.327 177.027 181.098 176.744 181.098C176.461 181.098 176.232 181.327 176.232 181.61C176.232 181.893 176.461 182.122 176.744 182.122Z" stroke="#FF991C" stroke-linecap="round" stroke-linejoin="round"/>
<path d="M193.828 185.692C193.77 185.693 193.713 185.701 193.657 185.715C193.729 185.647 193.788 185.565 193.827 185.473C193.867 185.382 193.887 185.283 193.887 185.184C193.895 184.991 193.828 184.803 193.7 184.659C193.571 184.515 193.391 184.428 193.199 184.416C193.007 184.403 192.817 184.467 192.671 184.593C192.525 184.719 192.435 184.898 192.419 185.09C192.372 184.99 192.302 184.903 192.217 184.833C192.131 184.764 192.031 184.715 191.923 184.69C191.816 184.665 191.705 184.664 191.597 184.687C191.489 184.711 191.388 184.759 191.302 184.826C191.215 184.894 191.144 184.981 191.096 185.08C191.047 185.178 191.021 185.287 191.019 185.397C191.018 185.507 191.042 185.616 191.088 185.716C191.135 185.816 191.203 185.904 191.288 185.974C191.166 186.033 191.064 186.125 190.992 186.24C190.919 186.354 190.881 186.487 190.88 186.622C190.88 186.767 190.923 186.909 191.004 187.03C191.084 187.151 191.198 187.245 191.332 187.302C191.466 187.358 191.613 187.374 191.756 187.347C191.898 187.32 192.03 187.252 192.134 187.15C192.154 187.333 192.242 187.501 192.38 187.621C192.518 187.742 192.696 187.807 192.879 187.804C193.063 187.8 193.238 187.728 193.371 187.602C193.504 187.475 193.585 187.304 193.598 187.121C193.672 187.148 193.75 187.163 193.828 187.163C194.024 187.163 194.212 187.085 194.351 186.947C194.489 186.808 194.567 186.62 194.567 186.425C194.567 186.229 194.489 186.041 194.351 185.902C194.212 185.764 194.024 185.686 193.828 185.686V185.692Z" stroke="#FF991C" stroke-linecap="round" stroke-linejoin="round"/>
<path d="M192.571 186.784C192.854 186.784 193.083 186.555 193.083 186.272C193.083 185.99 192.854 185.76 192.571 185.76C192.288 185.76 192.059 185.99 192.059 186.272C192.059 186.555 192.288 186.784 192.571 186.784Z" stroke="#FF991C" stroke-linecap="round" stroke-linejoin="round"/>
<path d="M184.212 195.192C184.624 194.071 185.131 192.988 185.725 191.952C186.48 190.763 189.179 190.549 189.179 190.549C189.179 190.549 187.776 192.817 187.128 193.896C186.48 194.975 184.212 195.192 184.212 195.192Z" stroke="#FF991C" stroke-linecap="round" stroke-linejoin="round"/>
<path d="M184.212 195.192C184.212 195.192 186.263 192.276 188.641 190.873" stroke="#FF991C" stroke-linecap="round" stroke-linejoin="round"/>
<path d="M153.066 205.703C154.23 205.439 155.415 205.273 156.607 205.207C158.013 205.207 159.669 207.339 159.669 207.339C159.669 207.339 156.999 207.397 155.742 207.442C154.485 207.488 153.066 205.703 153.066 205.703Z" stroke="#FF991C" stroke-linecap="round" stroke-linejoin="round"/>
<path d="M153.066 205.703C153.066 205.703 156.63 205.835 159.102 207.06" stroke="#FF991C" stroke-linecap="round" stroke-linejoin="round"/>
<path d="M201.135 203.237C201.135 203.237 200.61 200.797 199.466 200.94C198.322 201.082 199.246 203.953 199.246 203.953C199.246 203.953 197.742 204.381 197.814 205.025C197.885 205.67 198.954 205.132 199.881 204.99C199.881 204.99 199.508 206.665 200.509 206.934C201.51 207.203 201.319 204.724 201.319 204.724C201.319 204.724 203.555 205.181 204.183 204.18C204.912 203.03 202.064 203.091 201.135 203.237Z" stroke="#FF991C" stroke-linecap="round" stroke-linejoin="round"/>
<path d="M201.135 202.485C201.135 202.485 199.048 205.657 199.171 205.991C199.294 206.325 201.552 203.237 201.928 202.861C202.304 202.485 201.637 201.941 201.135 202.485Z" fill="#263238" stroke="#FF991C" stroke-linecap="round" stroke-linejoin="round"/>
<path d="M201.928 202.861C201.928 202.861 203.305 201.607 203.973 202.109C204.64 202.612 203.85 202.693 203.765 202.527" stroke="#FF991C" stroke-linecap="round" stroke-linejoin="round"/>
<path d="M201.261 202.233C201.261 202.233 201.637 200.395 201.219 200.02C200.801 199.644 200.632 200.146 200.927 200.438" stroke="#FF991C" stroke-linecap="round" stroke-linejoin="round"/>
<path d="M181.296 187.921C180.181 186.301 178.458 187.879 177.994 188.362C177.528 187.879 175.804 186.295 174.69 187.921C173.475 189.687 177.952 193.368 177.994 193.352C178.037 193.335 182.505 189.684 181.296 187.921Z" stroke="#FF991C" stroke-linecap="round" stroke-linejoin="round"/>
<path d="M165.832 181.603C164.678 180.917 164.066 182.384 163.913 182.812C163.489 182.647 161.969 182.164 161.746 183.479C161.5 184.915 165.31 185.919 165.333 185.896C165.355 185.874 167.082 182.349 165.832 181.603Z" stroke="#FF991C" stroke-linecap="round" stroke-linejoin="round"/>
<path d="M155.078 194.965C153.74 194.865 153.843 196.452 153.902 196.909C153.448 196.951 151.874 197.188 152.259 198.471C152.677 199.867 156.539 199.064 156.546 199.035C156.552 199.005 156.529 195.075 155.078 194.965Z" stroke="#FF991C" stroke-linecap="round" stroke-linejoin="round"/>
<path d="M197.551 215.954C198.614 215.134 197.477 214.01 197.133 213.725C197.457 213.401 198.458 212.163 197.315 211.457C196.07 210.695 193.731 213.871 193.751 213.897C193.77 213.922 196.398 216.842 197.551 215.954Z" stroke="#FF991C" stroke-linecap="round" stroke-linejoin="round"/>
<path d="M191.356 194.149C192.082 193.475 192.894 192.9 193.77 192.438" stroke="#FF991C" stroke-linecap="round" stroke-linejoin="round"/>
<path d="M185.346 207.18C185.346 207.18 186.104 200.729 189.655 196.031" stroke="#FF991C" stroke-linecap="round" stroke-linejoin="round"/>
<path d="M175.769 209.918C176.075 210.392 176.352 210.884 176.598 211.392" stroke="#FF991C" stroke-linecap="round" stroke-linejoin="round"/>
<path d="M163.706 202.262C164.172 202.634 164.697 202.928 165.258 203.13C167.821 204.102 171.398 205.074 174.181 207.932" stroke="#FF991C" stroke-linecap="round" stroke-linejoin="round"/>
<path d="M162.504 199.242C162.378 199.922 162.492 200.624 162.828 201.228" stroke="#FF991C" stroke-linecap="round" stroke-linejoin="round"/>
<path d="M192.445 182.413C193.259 181.673 193.928 180.788 194.418 179.802" stroke="#FF991C" stroke-linecap="round" stroke-linejoin="round"/>
<path d="M182.845 191.881C183.372 190.555 184.107 189.321 185.022 188.226C186.866 186.033 188.852 184.986 190.617 183.803" stroke="#FF991C" stroke-linecap="round" stroke-linejoin="round"/>
<path d="M181.782 197.136C181.782 196.375 181.852 195.616 181.993 194.868" stroke="#FF991C" stroke-linecap="round" stroke-linejoin="round"/>
<path d="M191.884 210.284C193.232 209.604 195.124 209.092 197.658 209.286C203.976 209.772 206.892 211.716 209.646 207.99" stroke="#FF991C" stroke-linecap="round" stroke-linejoin="round"/>
<path d="M189.072 212.688C189.363 212.238 189.716 211.833 190.122 211.483" stroke="#FF991C" stroke-linecap="round" stroke-linejoin="round"/>
<path d="M202.505 195.629H201.64C201.118 195.629 200.166 195.024 200.6 194.502C201.034 193.98 202.505 195.195 202.505 195.195L201.209 191.123L203.982 189.827L205.11 193.64C205.11 193.64 203.377 192.947 203.202 193.724C203.027 194.502 204.329 194.418 205.11 194.071" stroke="#FF991C" stroke-linecap="round" stroke-linejoin="round"/>
<path d="M201.465 191.988L204.151 190.688" stroke="#FF991C" stroke-linecap="round" stroke-linejoin="round"/>
<path d="M208.463 194.333H207.893C207.546 194.333 206.921 193.932 207.203 193.588C207.485 193.245 208.463 194.045 208.463 194.045L207.605 191.353L209.439 190.494L210.184 193.015C210.184 193.015 209.037 192.558 208.923 193.073C208.81 193.588 209.669 193.53 210.184 193.3" stroke="#FF991C" stroke-linecap="round" stroke-linejoin="round"/>
<path d="M207.777 191.926L209.552 191.067" stroke="#FF991C" stroke-linecap="round" stroke-linejoin="round"/>
<path d="M158.081 191.417H157.511C157.164 191.417 156.539 191.016 156.821 190.672C157.103 190.329 158.081 191.129 158.081 191.129L157.223 188.437L159.057 187.578L159.802 190.099C159.802 190.099 158.655 189.642 158.541 190.157C158.428 190.672 159.287 190.614 159.802 190.384" stroke="#FF991C" stroke-linecap="round" stroke-linejoin="round"/>
<path d="M157.395 189.01L159.17 188.151" stroke="#FF991C" stroke-linecap="round" stroke-linejoin="round"/>
<path d="M212.4 200.525C212.4 200.525 214.746 199.819 214.373 198.432C214.049 197.259 212.954 198.432 212.954 198.432C212.954 198.432 213.634 197.33 212.63 196.812C211.626 196.294 211.334 197.713 211.334 197.713C211.334 197.713 211.133 196.397 210.219 197.003C209.306 197.609 211.234 200.856 211.234 200.856L212.4 200.525Z" stroke="#FF991C" stroke-linecap="round" stroke-linejoin="round"/>
<path d="M209.393 205.531C210.311 204.115 210.931 202.528 211.217 200.865L212.215 197.781" stroke="#FF991C" stroke-linecap="round" stroke-linejoin="round"/>
<path d="M210.608 203.098C210.706 202.459 210.561 201.808 210.203 201.27C209.846 200.669 209.402 200.124 208.888 199.65C208.888 199.65 208.583 200.765 208.784 201.474C208.985 202.184 210.608 203.098 210.608 203.098Z" stroke="#FF991C" stroke-linecap="round" stroke-linejoin="round"/>
<path d="M210.307 203.908C210.701 203.569 211.207 203.389 211.726 203.402H213.651C213.651 203.402 211.217 205.327 210.307 203.908Z" stroke="#FF991C" stroke-linecap="round" stroke-linejoin="round"/>
<path d="M210.906 198.302L211.211 200.7L212.912 199.436" stroke="#FF991C" stroke-linecap="round" stroke-linejoin="round"/>
<path d="M157.796 210.981C157.796 210.981 156.26 209.075 155.117 209.94C154.145 210.676 155.651 211.256 155.651 211.256C155.651 211.256 154.372 211.042 154.284 212.173C154.197 213.304 155.603 213.012 155.603 213.012C155.603 213.012 154.459 213.696 155.366 214.308C156.273 214.92 158.554 211.917 158.554 211.917L157.796 210.981Z" stroke="#FF991C" stroke-linecap="round" stroke-linejoin="round"/>
<path d="M163.56 211.872C161.905 211.554 160.201 211.576 158.554 211.936L155.314 212.176" stroke="#FF991C" stroke-linecap="round" stroke-linejoin="round"/>
<path d="M160.848 211.661C160.221 211.811 159.672 212.19 159.309 212.724C158.887 213.282 158.549 213.899 158.305 214.554C158.305 214.554 159.452 214.418 160.032 213.961C160.612 213.504 160.848 211.661 160.848 211.661Z" stroke="#FF991C" stroke-linecap="round" stroke-linejoin="round"/>
<path d="M161.713 211.638C161.251 211.401 160.893 211 160.709 210.514C160.369 209.668 159.987 208.729 159.987 208.729C159.987 208.729 162.685 210.258 161.713 211.638Z" stroke="#FF991C" stroke-linecap="round" stroke-linejoin="round"/>
<path d="M156.296 213.19L158.402 212.004L156.591 210.906" stroke="#FF991C" stroke-linecap="round" stroke-linejoin="round"/>
<path d="M173.468 202.835C173.371 202.614 173.263 202.397 173.144 202.187C172.564 201.121 171.712 200.185 170.374 200.376C168.106 200.7 172.318 204.264 173.076 204.371C174.009 204.504 173.769 203.554 173.468 202.835Z" fill="#FF991C"/>
<path d="M171.741 189.444C171.625 189.169 171.501 188.929 171.417 188.796C170.834 187.727 169.985 186.794 168.647 186.985C166.379 187.309 170.591 190.873 171.349 190.98C172.282 191.113 172.043 190.16 171.741 189.444Z" fill="#FF991C"/>
<path d="M194.538 204.151C194.25 204.235 193.997 204.332 193.857 204.387C192.73 204.841 191.703 205.579 191.739 206.931C191.8 209.221 195.824 205.447 196.019 204.705C196.255 203.807 195.283 203.94 194.538 204.151Z" fill="#FF991C"/>
<path d="M197.454 192.056C197.223 192.123 196.996 192.202 196.773 192.292C195.646 192.746 194.619 193.481 194.655 194.832C194.716 197.123 198.74 193.348 198.935 192.61C199.171 191.709 198.199 191.839 197.454 192.056Z" fill="#FF991C"/>
<path d="M214.059 191.304C213.829 191.37 213.603 191.449 213.382 191.541C212.254 191.994 211.227 192.73 211.263 194.081C211.324 196.371 215.348 192.597 215.543 191.858C215.779 190.948 214.807 191.077 214.059 191.304Z" fill="#FF991C"/>
<path d="M168.527 202.32C168.482 202.209 168.431 202.101 168.375 201.996C168.093 201.478 167.678 201.024 167.024 201.111C165.916 201.27 167.973 203.01 168.342 203.055C168.793 203.133 168.676 202.67 168.527 202.32Z" fill="#FF991C"/>
<path d="M160.618 193.915C160.508 193.821 160.398 193.744 160.34 193.702C159.85 193.361 159.277 193.141 158.736 193.517C157.816 194.165 160.434 194.787 160.787 194.67C161.208 194.525 160.907 194.165 160.618 193.915Z" fill="#FF991C"/>
<path d="M172.308 197.891C172.263 197.78 172.213 197.672 172.156 197.567C171.871 197.045 171.456 196.595 170.805 196.682C169.697 196.841 171.754 198.578 172.124 198.626C172.571 198.707 172.454 198.241 172.308 197.891Z" fill="#FF991C"/>
<path d="M153.234 190.594C153.19 190.484 153.139 190.375 153.082 190.27C152.8 189.749 152.385 189.298 151.731 189.386C150.623 189.545 152.68 191.285 153.05 191.33C153.5 191.408 153.383 190.944 153.234 190.594Z" fill="#FF991C"/>
<path d="M158.389 201.944C158.285 201.881 158.176 201.823 158.065 201.772C157.534 201.513 156.931 201.384 156.445 201.837C155.635 202.612 158.321 202.832 158.652 202.66C159.079 202.453 158.713 202.142 158.389 201.944Z" fill="#FF991C"/>
<path d="M171.336 185.148C171.291 185.037 171.24 184.929 171.184 184.824C170.899 184.306 170.484 183.852 169.833 183.939C168.725 184.098 170.782 185.838 171.152 185.883C171.599 185.961 171.482 185.498 171.336 185.148Z" fill="#FF991C"/>
<path d="M183.522 198.315C183.434 198.429 183.36 198.539 183.321 198.6C182.997 199.099 182.799 199.686 183.198 200.22C183.872 201.115 184.403 198.474 184.27 198.124C184.108 197.69 183.758 198.017 183.522 198.315Z" fill="#FF991C"/>
<path d="M188.706 205.119C188.618 205.233 188.544 205.343 188.505 205.404C188.181 205.903 187.983 206.49 188.382 207.024C189.056 207.919 189.587 205.278 189.454 204.928C189.292 204.494 188.942 204.821 188.706 205.119Z" fill="#FF991C"/>
<path d="M195.925 187.416C195.815 187.446 195.707 187.482 195.601 187.523C195.047 187.734 194.538 188.083 194.541 188.741C194.541 189.859 196.55 188.061 196.654 187.701C196.767 187.248 196.294 187.299 195.925 187.416Z" fill="#FF991C"/>
<path d="M183.412 183.343C183.308 183.444 183.217 183.541 183.169 183.596C182.777 184.04 182.488 184.587 182.803 185.167C183.331 186.139 184.257 183.625 184.183 183.262C184.089 182.815 183.69 183.084 183.412 183.343Z" fill="#FF991C"/>
<path d="M161.072 206.208C161.156 206.289 161.245 206.364 161.338 206.435C161.807 206.801 162.371 207.05 162.932 206.704C163.881 206.117 161.312 205.346 160.942 205.447C160.505 205.56 160.797 205.939 161.072 206.208Z" fill="#FF991C"/>
<path d="M201.552 187.536C201.41 187.536 201.277 187.536 201.203 187.536C200.61 187.572 200.02 187.753 199.826 188.382C199.502 189.451 201.948 188.333 202.152 188.022C202.401 187.643 201.935 187.552 201.552 187.536Z" fill="#FF991C"/>
<path d="M74.312 347C71.432 347 69.464 346.448 68.408 345.344C67.352 344.192 66.824 342.44 66.824 340.088C66.824 339.272 66.872 337.952 66.968 336.128C67.064 334.304 67.28 331.472 67.616 327.632C67.232 326.912 66.896 326.288 66.608 325.76C66.32 325.232 66.032 324.68 65.744 324.104C65.456 323.528 65.144 322.856 64.808 322.088C64.472 321.32 64.04 320.36 63.512 319.208C62.696 317.432 61.76 315.368 60.704 313.016C59.696 310.664 58.712 308.408 57.752 306.248C56.792 304.04 55.976 302.096 55.304 300.416C54.68 298.736 54.368 297.68 54.368 297.248C54.368 296.24 55.976 295.736 59.192 295.736C61.208 295.736 62.816 295.952 64.016 296.384C65.264 296.768 66.272 297.32 67.04 298.04C67.808 298.712 68.384 299.528 68.768 300.488C69.152 301.4 69.512 302.384 69.848 303.44C70.28 304.832 70.592 305.864 70.784 306.536C70.976 307.208 71.12 307.76 71.216 308.192C71.36 308.624 71.504 309.056 71.648 309.488C71.792 309.872 71.984 310.496 72.224 311.36C72.512 312.224 72.896 313.424 73.376 314.96C73.856 316.496 74.528 318.608 75.392 321.296C76.784 318.368 77.888 315.992 78.704 314.168C79.568 312.344 80.312 310.664 80.936 309.128C81.56 307.544 82.136 305.936 82.664 304.304C83.24 302.624 83.96 300.512 84.824 297.968C85.112 297.056 85.4 296.48 85.688 296.24C86.024 295.952 86.528 295.808 87.2 295.808C87.44 295.808 88.088 295.856 89.144 295.952C90.248 296 91.376 296.168 92.528 296.456C93.728 296.744 94.808 297.2 95.768 297.824C96.728 298.448 97.208 299.288 97.208 300.344C97.208 301.16 96.92 302.312 96.344 303.8C95.816 305.288 95.096 306.968 94.184 308.84C93.32 310.664 92.288 312.608 91.088 314.672C89.936 316.736 88.736 318.752 87.488 320.72C86.24 322.688 84.992 324.512 83.744 326.192C82.544 327.824 81.44 329.168 80.432 330.224C80.384 331.376 80.312 332.744 80.216 334.328C80.168 335.912 80.072 337.496 79.928 339.08C79.832 340.616 79.736 342.032 79.64 343.328C79.544 344.576 79.472 345.44 79.424 345.92C79.376 346.304 79.28 346.592 79.136 346.784C78.992 346.928 78.704 347 78.272 347H74.312ZM112.369 347.72C109.057 347.72 106.297 347.264 104.089 346.352C101.929 345.392 100.201 344.096 98.9051 342.464C97.6091 340.832 96.6971 338.936 96.1691 336.776C95.6411 334.568 95.3771 332.216 95.3771 329.72C95.3771 326.84 95.7131 324.032 96.3851 321.296C97.1051 318.512 98.3051 316.04 99.9851 313.88C101.665 311.72 103.873 309.992 106.609 308.696C109.393 307.352 112.849 306.68 116.977 306.68C123.025 306.68 127.345 308.168 129.937 311.144C132.577 314.072 133.897 318.2 133.897 323.528C133.897 325.016 133.777 326.672 133.537 328.496C133.345 330.272 132.937 332.048 132.313 333.824C131.737 335.6 130.921 337.328 129.865 339.008C128.857 340.688 127.561 342.176 125.977 343.472C124.393 344.768 122.473 345.8 120.217 346.568C118.009 347.336 115.393 347.72 112.369 347.72ZM115.753 316.256C113.929 316.256 112.465 316.736 111.361 317.696C110.305 318.608 109.489 319.736 108.913 321.08C108.385 322.376 108.025 323.768 107.833 325.256C107.689 326.696 107.617 327.92 107.617 328.928C107.617 332.096 108.121 334.424 109.129 335.912C110.137 337.4 111.577 338.144 113.449 338.144C115.129 338.144 116.497 337.616 117.553 336.56C118.657 335.504 119.497 334.232 120.073 332.744C120.697 331.256 121.105 329.696 121.297 328.064C121.537 326.432 121.657 325.064 121.657 323.96C121.657 321.56 121.201 319.688 120.289 318.344C119.425 316.952 117.913 316.256 115.753 316.256ZM152.448 347.72C150.576 347.72 148.776 347.384 147.048 346.712C145.368 346.04 143.88 344.984 142.584 343.544C141.336 342.104 140.328 340.28 139.56 338.072C138.84 335.864 138.48 333.2 138.48 330.08C138.48 328.688 138.576 327.152 138.768 325.472C138.96 323.744 139.296 322.016 139.776 320.288C140.256 318.56 140.928 316.88 141.792 315.248C142.656 313.616 143.736 312.176 145.032 310.928C146.376 309.632 147.96 308.6 149.784 307.832C151.656 307.064 153.84 306.68 156.336 306.68C158.736 306.68 160.656 307.112 162.096 307.976C163.584 308.792 164.52 310.232 164.904 312.296C165 310.424 165.096 308.792 165.192 307.4C165.288 306.008 165.36 304.712 165.408 303.512C165.504 302.312 165.6 301.112 165.696 299.912C165.792 298.712 165.888 297.344 165.984 295.808C166.032 294.752 166.152 294.128 166.344 293.936C166.44 293.84 166.56 293.792 166.704 293.792C166.848 293.744 167.112 293.72 167.496 293.72H170.304C171.744 293.72 172.944 293.888 173.904 294.224C174.864 294.56 175.632 295.016 176.208 295.592C176.784 296.168 177.192 296.84 177.432 297.608C177.672 298.328 177.792 299.096 177.792 299.912C177.792 299.912 177.744 300.512 177.648 301.712C177.552 302.912 177.432 304.52 177.288 306.536C177.144 308.504 176.976 310.76 176.784 313.304C176.592 315.848 176.4 318.488 176.208 321.224C176.016 323.912 175.824 326.6 175.632 329.288C175.44 331.928 175.248 334.376 175.056 336.632C174.864 338.84 174.696 340.76 174.552 342.392C174.456 343.976 174.384 345.032 174.336 345.56C174.24 346.136 174.12 346.52 173.976 346.712C173.832 346.904 173.424 347 172.752 347H170.16C169.152 347 168.192 346.928 167.28 346.784C166.416 346.592 165.648 346.304 164.976 345.92C164.352 345.488 163.848 344.936 163.464 344.264C163.128 343.544 162.96 342.632 162.96 341.528C162.096 343.352 160.776 344.84 159 345.992C157.272 347.144 155.088 347.72 152.448 347.72ZM158.712 316.256C156.264 316.256 154.44 317.336 153.24 319.496C152.088 321.608 151.512 324.464 151.512 328.064C151.512 329.312 151.584 330.536 151.728 331.736C151.92 332.936 152.232 334.016 152.664 334.976C153.096 335.936 153.672 336.704 154.392 337.28C155.16 337.856 156.12 338.144 157.272 338.144C159.336 338.144 161.064 337.136 162.456 335.12C163.848 333.104 164.544 329.936 164.544 325.616C164.544 324.416 164.472 323.264 164.328 322.16C164.184 321.008 163.896 320 163.464 319.136C163.032 318.272 162.432 317.576 161.664 317.048C160.896 316.52 159.912 316.256 158.712 316.256ZM180.917 338.144C180.917 333.824 182.861 330.44 186.749 327.992C190.637 325.544 196.373 324.224 203.957 324.032C204.005 323.504 204.029 323.072 204.029 322.736C204.077 322.352 204.101 321.896 204.101 321.368C204.101 319.832 203.813 318.608 203.237 317.696C202.661 316.784 201.461 316.328 199.637 316.328C198.629 316.328 197.813 316.472 197.189 316.76C196.565 317.048 196.061 317.456 195.677 317.984C195.293 318.464 194.981 319.064 194.741 319.784C194.501 320.504 194.285 321.296 194.093 322.16C193.997 322.592 193.781 322.88 193.445 323.024C193.109 323.12 192.581 323.168 191.861 323.168C186.965 323.168 184.517 321.32 184.517 317.624C184.517 316.136 184.853 314.72 185.525 313.376C186.245 312.032 187.277 310.88 188.621 309.92C190.013 308.912 191.741 308.12 193.805 307.544C195.869 306.968 198.269 306.68 201.005 306.68C206.333 306.68 210.197 307.784 212.597 309.992C214.997 312.2 216.197 315.32 216.197 319.352C216.197 319.88 216.125 320.84 215.981 322.232C215.885 323.576 215.741 325.016 215.549 326.552C215.405 328.04 215.261 329.456 215.117 330.8C215.021 332.144 214.973 333.08 214.973 333.608C214.973 334.808 215.189 335.672 215.621 336.2C216.053 336.68 216.533 337.016 217.061 337.208C217.637 337.4 218.141 337.544 218.573 337.64C219.005 337.736 219.221 337.976 219.221 338.36C219.221 339.416 219.077 340.496 218.789 341.6C218.501 342.704 218.021 343.712 217.349 344.624C216.725 345.536 215.837 346.28 214.685 346.856C213.581 347.432 212.213 347.72 210.581 347.72C208.277 347.72 206.549 347.168 205.397 346.064C204.245 344.96 203.477 343.424 203.093 341.456C201.941 343.136 200.429 344.6 198.557 345.848C196.733 347.096 194.333 347.72 191.357 347.72C189.917 347.72 188.549 347.552 187.253 347.216C186.005 346.88 184.901 346.328 183.941 345.56C183.029 344.792 182.285 343.808 181.709 342.608C181.181 341.36 180.917 339.872 180.917 338.144ZM203.309 329.936C202.061 329.936 200.837 330.032 199.637 330.224C198.437 330.416 197.357 330.728 196.397 331.16C195.485 331.544 194.741 332.072 194.165 332.744C193.589 333.416 193.301 334.232 193.301 335.192C193.301 336.296 193.637 337.064 194.309 337.496C195.029 337.928 195.797 338.144 196.613 338.144C197.381 338.144 198.149 337.976 198.917 337.64C199.685 337.304 200.357 336.8 200.933 336.128C201.557 335.408 202.085 334.544 202.517 333.536C202.949 332.528 203.213 331.328 203.309 329.936ZM248.559 306.68C253.071 306.68 256.455 308.072 258.711 310.856C261.015 313.64 262.167 318.032 262.167 324.032C262.167 327.776 261.735 331.112 260.871 334.04C260.007 336.968 258.807 339.464 257.271 341.528C255.735 343.544 253.935 345.08 251.871 346.136C249.807 347.192 247.575 347.72 245.175 347.72C242.631 347.72 240.639 347.168 239.199 346.064C237.759 344.96 236.631 343.4 235.815 341.384C235.671 343.112 235.551 344.432 235.455 345.344C235.359 346.256 235.287 346.976 235.239 347.504C235.191 348.08 235.143 348.584 235.095 349.016C235.095 349.448 235.047 350.024 234.951 350.744C234.903 351.464 234.831 352.448 234.735 353.696C234.639 354.944 234.495 356.672 234.303 358.88C234.255 359.456 234.135 359.84 233.943 360.032C233.751 360.224 233.343 360.32 232.719 360.32H230.127C228.639 360.32 227.415 360.152 226.455 359.816C225.543 359.528 224.799 359.096 224.223 358.52C223.695 357.944 223.311 357.224 223.071 356.36C222.879 355.544 222.783 354.584 222.783 353.48C222.783 353 222.855 351.704 222.999 349.592C223.143 347.48 223.311 344.96 223.503 342.032C223.743 339.056 223.983 335.864 224.223 332.456C224.511 329.048 224.775 325.808 225.015 322.736C225.255 319.616 225.447 316.856 225.591 314.456C225.783 312.056 225.927 310.4 226.023 309.488C226.071 308.432 226.191 307.808 226.383 307.616C226.527 307.472 226.911 307.4 227.535 307.4H230.343C232.935 307.4 234.807 307.952 235.959 309.056C237.159 310.112 237.759 311.384 237.759 312.872C238.863 310.664 240.279 309.08 242.007 308.12C243.783 307.16 245.967 306.68 248.559 306.68ZM243.303 316.256C240.855 316.256 239.055 317.312 237.903 319.424C236.751 321.536 236.175 324.416 236.175 328.064C236.175 329.312 236.247 330.536 236.391 331.736C236.583 332.936 236.895 334.016 237.327 334.976C237.759 335.936 238.335 336.704 239.055 337.28C239.823 337.856 240.783 338.144 241.935 338.144C243.999 338.144 245.727 337.136 247.119 335.12C248.511 333.104 249.207 329.936 249.207 325.616C249.207 324.416 249.111 323.264 248.919 322.16C248.775 321.008 248.487 320 248.055 319.136C247.623 318.272 247.023 317.576 246.255 317.048C245.487 316.52 244.503 316.256 243.303 316.256ZM292.645 306.68C297.157 306.68 300.541 308.072 302.797 310.856C305.101 313.64 306.253 318.032 306.253 324.032C306.253 327.776 305.821 331.112 304.957 334.04C304.093 336.968 302.893 339.464 301.357 341.528C299.821 343.544 298.021 345.08 295.957 346.136C293.893 347.192 291.661 347.72 289.261 347.72C286.717 347.72 284.725 347.168 283.285 346.064C281.845 344.96 280.717 343.4 279.901 341.384C279.757 343.112 279.637 344.432 279.541 345.344C279.445 346.256 279.373 346.976 279.325 347.504C279.277 348.08 279.229 348.584 279.181 349.016C279.181 349.448 279.133 350.024 279.037 350.744C278.989 351.464 278.917 352.448 278.821 353.696C278.725 354.944 278.581 356.672 278.389 358.88C278.341 359.456 278.221 359.84 278.029 360.032C277.837 360.224 277.429 360.32 276.805 360.32H274.213C272.725 360.32 271.501 360.152 270.541 359.816C269.629 359.528 268.885 359.096 268.309 358.52C267.781 357.944 267.397 357.224 267.157 356.36C266.965 355.544 266.869 354.584 266.869 353.48C266.869 353 266.941 351.704 267.085 349.592C267.229 347.48 267.397 344.96 267.589 342.032C267.829 339.056 268.069 335.864 268.309 332.456C268.597 329.048 268.861 325.808 269.101 322.736C269.341 319.616 269.533 316.856 269.677 314.456C269.869 312.056 270.013 310.4 270.109 309.488C270.157 308.432 270.277 307.808 270.469 307.616C270.613 307.472 270.997 307.4 271.621 307.4H274.429C277.021 307.4 278.893 307.952 280.045 309.056C281.245 310.112 281.845 311.384 281.845 312.872C282.949 310.664 284.365 309.08 286.093 308.12C287.869 307.16 290.053 306.68 292.645 306.68ZM287.389 316.256C284.941 316.256 283.141 317.312 281.989 319.424C280.837 321.536 280.261 324.416 280.261 328.064C280.261 329.312 280.333 330.536 280.477 331.736C280.669 332.936 280.981 334.016 281.413 334.976C281.845 335.936 282.421 336.704 283.141 337.28C283.909 337.856 284.869 338.144 286.021 338.144C288.085 338.144 289.813 337.136 291.205 335.12C292.597 333.104 293.293 329.936 293.293 325.616C293.293 324.416 293.197 323.264 293.005 322.16C292.861 321.008 292.573 320 292.141 319.136C291.709 318.272 291.109 317.576 290.341 317.048C289.573 316.52 288.589 316.256 287.389 316.256Z" fill="#FF991C"/>
<defs>
<linearGradient id="paint0_linear" x1="132.372" y1="285.912" x2="226.98" y2="285.912" gradientUnits="userSpaceOnUse">
<stop stop-color="#000C40"/>
<stop offset="1" stop-color="#607D8B"/>
</linearGradient>
<linearGradient id="paint1_linear" x1="163.806" y1="277.454" x2="199.873" y2="277.454" gradientUnits="userSpaceOnUse">
<stop stop-color="#00467F"/>
<stop offset="1" stop-color="#A5CC82"/>
</linearGradient>
<linearGradient id="paint2_linear" x1="160.68" y1="250.942" x2="202.628" y2="250.942" gradientUnits="userSpaceOnUse">
<stop stop-color="#FFE259"/>
<stop offset="1" stop-color="#FFA751"/>
</linearGradient>
<linearGradient id="paint3_linear" x1="151.397" y1="276.072" x2="180.812" y2="276.072" gradientUnits="userSpaceOnUse">
<stop stop-color="#00467F"/>
<stop offset="1" stop-color="#A5CC82"/>
</linearGradient>
<linearGradient id="paint4_linear" x1="179.966" y1="276.082" x2="209.381" y2="276.082" gradientUnits="userSpaceOnUse">
<stop stop-color="#00467F"/>
<stop offset="1" stop-color="#A5CC82"/>
</linearGradient>
<linearGradient id="paint5_linear" x1="179.966" y1="276.082" x2="209.381" y2="276.082" gradientUnits="userSpaceOnUse">
<stop stop-color="#00467F"/>
<stop offset="1" stop-color="#A5CC82"/>
</linearGradient>
</defs>
</svg>
